<svg xmlns="http://www.w3.org/2000/svg" xmlns:xlink="http://www.w3.org/1999/xlink" width="100" zoomAndPan="magnify" viewBox="0 0 75 74.999997" height="100" preserveAspectRatio="xMidYMid meet" version="1.0"><defs><g/><clipPath id="54db284aa5"><path d="M 12.703125 29 L 27 29 L 27 33 L 12.703125 33 Z M 12.703125 29 " clip-rule="nonzero"/></clipPath><clipPath id="a4511e245a"><path d="M 13 25.605469 L 38.203125 25.605469 L 38.203125 47.355469 L 13 47.355469 Z M 13 25.605469 " clip-rule="nonzero"/></clipPath></defs><g clip-path="url(#54db284aa5)"><path fill="#222831" d="M 14.339844 32.257812 L 14.101562 31.976562 L 12.703125 29.957031 L 26.617188 29.957031 L 26.617188 32.257812 Z M 14.339844 32.257812 " fill-opacity="1" fill-rule="evenodd"/></g><path fill="#222831" d="M 19.175781 36.132812 L 18.617188 35.425781 L 17.5 33.835938 L 26.617188 33.835938 L 26.617188 36.09375 C 24.121094 36.09375 21.648438 36.136719 19.175781 36.136719 Z M 19.175781 36.132812 " fill-opacity="1" fill-rule="evenodd"/><g clip-path="url(#a4511e245a)"><path fill="#222831" d="M 22.855469 47.179688 L 22.855469 37.464844 C 24.101562 37.464844 25.347656 37.484375 26.617188 37.484375 L 26.617188 44.191406 L 30.765625 44.191406 C 31.949219 44.191406 32.851562 43.890625 33.519531 43.308594 C 34.1875 42.730469 34.53125 41.910156 34.53125 40.878906 C 34.53125 38.644531 33.367188 37.503906 31.089844 37.4375 L 30.617188 37.4375 L 30.617188 34.6875 C 31.628906 34.621094 32.421875 34.363281 33.023438 33.890625 C 33.671875 33.375 33.992188 32.621094 33.992188 31.65625 C 33.992188 30.601562 33.691406 29.828125 33.089844 29.355469 C 32.488281 28.882812 31.542969 28.644531 30.25 28.644531 C 28.164062 28.644531 19.734375 28.625 15.433594 28.601562 L 13.414062 25.613281 L 30.25 25.613281 C 32.679688 25.613281 34.550781 26.105469 35.820312 27.074219 C 37.089844 28.0625 37.734375 29.503906 37.734375 31.441406 C 37.734375 32.429688 37.476562 33.3125 36.9375 34.105469 C 36.402344 34.902344 35.625 35.527344 34.59375 35.957031 C 35.757812 36.257812 36.660156 36.859375 37.304688 37.742188 C 37.929688 38.601562 38.25 39.652344 38.25 40.878906 C 38.25 42.921875 37.605469 44.472656 36.316406 45.546875 C 35.003906 46.644531 33.15625 47.179688 30.722656 47.179688 Z M 22.855469 47.179688 " fill-opacity="1" fill-rule="evenodd"/></g><g fill="#222831" fill-opacity="1"><g transform="translate(38.252789, 46.464916)"><g><path d="M 2.03125 -0.015625 C 1.738281 -0.0234375 1.507812 -0.0546875 1.34375 -0.109375 C 1.1875 -0.160156 1.039062 -0.25 0.90625 -0.375 C 0.664062 -0.59375 0.484375 -0.867188 0.359375 -1.203125 C 0.234375 -1.546875 0.171875 -1.941406 0.171875 -2.390625 C 0.171875 -2.742188 0.210938 -3.066406 0.296875 -3.359375 C 0.378906 -3.648438 0.5 -3.898438 0.65625 -4.109375 C 0.8125 -4.316406 1 -4.472656 1.21875 -4.578125 C 1.445312 -4.691406 1.695312 -4.75 1.96875 -4.75 C 2.113281 -4.75 2.242188 -4.734375 2.359375 -4.703125 C 2.484375 -4.671875 2.609375 -4.617188 2.734375 -4.546875 L 2.734375 -4.71875 L 4.265625 -4.71875 L 4.265625 -1.546875 L 4.609375 -1.546875 L 4.265625 0 L 2.6875 0 L 2.6875 -1.421875 L 2.359375 0 Z M 2.6875 -2.453125 C 2.6875 -2.578125 2.679688 -2.675781 2.671875 -2.75 C 2.671875 -2.820312 2.664062 -2.878906 2.65625 -2.921875 C 2.644531 -2.972656 2.632812 -3.015625 2.625 -3.046875 C 2.613281 -3.078125 2.59375 -3.101562 2.5625 -3.125 C 2.488281 -3.207031 2.40625 -3.25 2.3125 -3.25 C 2.15625 -3.25 2.03125 -3.171875 1.9375 -3.015625 C 1.851562 -2.867188 1.8125 -2.671875 1.8125 -2.421875 C 1.8125 -1.835938 2.039062 -1.546875 2.5 -1.546875 C 2.507812 -1.546875 2.535156 -1.546875 2.578125 -1.546875 C 2.617188 -1.546875 2.65625 -1.546875 2.6875 -1.546875 Z M 2.6875 -2.453125 "/></g></g></g><g fill="#222831" fill-opacity="1"><g transform="translate(42.909843, 46.464916)"><g><path d="M 0.40625 -3.125 L 0.046875 -3.125 L 0.40625 -4.71875 L 2 -4.71875 L 2 -4.296875 C 2.09375 -4.453125 2.207031 -4.5625 2.34375 -4.625 C 2.488281 -4.695312 2.664062 -4.734375 2.875 -4.734375 C 2.90625 -4.734375 2.9375 -4.734375 2.96875 -4.734375 C 3 -4.734375 3.039062 -4.726562 3.09375 -4.71875 L 2.734375 -3.125 C 2.640625 -3.175781 2.554688 -3.203125 2.484375 -3.203125 C 2.410156 -3.203125 2.335938 -3.179688 2.265625 -3.140625 C 2.191406 -3.109375 2.140625 -3.066406 2.109375 -3.015625 C 2.085938 -2.984375 2.066406 -2.945312 2.046875 -2.90625 C 2.035156 -2.863281 2.023438 -2.8125 2.015625 -2.75 C 2.003906 -2.6875 2 -2.609375 2 -2.515625 C 2 -2.429688 2 -2.316406 2 -2.171875 L 2 0 L 0.40625 0 Z M 0.40625 -3.125 "/></g></g></g><g fill="#222831" fill-opacity="1"><g transform="translate(45.949997, 46.464916)"><g><path d="M 0.40625 -3.125 L 0.046875 -3.125 L 0.40625 -4.71875 L 2 -4.71875 L 2 -3.296875 L 2.3125 -4.71875 C 2.507812 -4.71875 2.660156 -4.71875 2.765625 -4.71875 C 2.878906 -4.71875 2.96875 -4.710938 3.03125 -4.703125 C 3.09375 -4.703125 3.140625 -4.695312 3.171875 -4.6875 C 3.210938 -4.6875 3.257812 -4.679688 3.3125 -4.671875 C 3.445312 -4.640625 3.570312 -4.578125 3.6875 -4.484375 C 3.8125 -4.390625 3.910156 -4.273438 3.984375 -4.140625 C 4.023438 -4.078125 4.054688 -4.015625 4.078125 -3.953125 C 4.097656 -3.898438 4.113281 -3.828125 4.125 -3.734375 C 4.132812 -3.648438 4.140625 -3.535156 4.140625 -3.390625 C 4.140625 -3.253906 4.140625 -3.066406 4.140625 -2.828125 L 4.140625 -1.546875 L 4.484375 -1.546875 L 4.140625 0 L 2.5625 0 L 2.5625 -2.09375 C 2.5625 -2.257812 2.5625 -2.390625 2.5625 -2.484375 C 2.5625 -2.585938 2.554688 -2.664062 2.546875 -2.71875 C 2.546875 -2.78125 2.539062 -2.828125 2.53125 -2.859375 C 2.519531 -2.890625 2.507812 -2.921875 2.5 -2.953125 C 2.4375 -3.078125 2.304688 -3.140625 2.109375 -3.140625 C 2.085938 -3.140625 2.066406 -3.140625 2.046875 -3.140625 C 2.035156 -3.140625 2.019531 -3.132812 2 -3.125 L 2 0 L 0.40625 0 Z M 0.40625 -3.125 "/></g></g></g><g fill="#222831" fill-opacity="1"><g transform="translate(50.481184, 46.464916)"><g><path d="M 3.640625 -0.046875 C 3.441406 0.00390625 3.257812 0.0390625 3.09375 0.0625 C 2.925781 0.0820312 2.75 0.09375 2.5625 0.09375 C 2.125 0.09375 1.75 0.0195312 1.4375 -0.125 C 1.132812 -0.28125 0.875 -0.523438 0.65625 -0.859375 C 0.332031 -1.328125 0.171875 -1.851562 0.171875 -2.4375 C 0.171875 -2.769531 0.222656 -3.082031 0.328125 -3.375 C 0.429688 -3.664062 0.570312 -3.914062 0.75 -4.125 C 0.9375 -4.34375 1.148438 -4.507812 1.390625 -4.625 C 1.640625 -4.75 1.910156 -4.8125 2.203125 -4.8125 C 2.867188 -4.8125 3.367188 -4.515625 3.703125 -3.921875 C 3.984375 -3.421875 4.125 -2.851562 4.125 -2.21875 C 4.125 -2.207031 4.125 -2.175781 4.125 -2.125 C 4.125 -2.070312 4.117188 -2.019531 4.109375 -1.96875 L 1.796875 -1.96875 C 1.890625 -1.726562 2.015625 -1.554688 2.171875 -1.453125 C 2.328125 -1.347656 2.550781 -1.296875 2.84375 -1.296875 C 3.007812 -1.296875 3.191406 -1.3125 3.390625 -1.34375 C 3.597656 -1.382812 3.789062 -1.4375 3.96875 -1.5 Z M 2.609375 -2.921875 C 2.578125 -3.140625 2.523438 -3.300781 2.453125 -3.40625 C 2.390625 -3.507812 2.296875 -3.5625 2.171875 -3.5625 C 2.054688 -3.5625 1.957031 -3.5 1.875 -3.375 C 1.800781 -3.257812 1.757812 -3.109375 1.75 -2.921875 Z M 2.609375 -2.921875 "/></g></g></g><g fill="#222831" fill-opacity="1"><g transform="translate(54.750956, 46.464916)"><g><path d="M 0.578125 -0.15625 C 0.859375 -0.03125 1.09375 0.0546875 1.28125 0.109375 C 1.476562 0.171875 1.671875 0.203125 1.859375 0.203125 C 2.117188 0.203125 2.300781 0.125 2.40625 -0.03125 C 2.507812 -0.1875 2.5625 -0.457031 2.5625 -0.84375 L 2.5625 -1.546875 L 2.28125 -0.359375 L 1.59375 -0.359375 C 1.425781 -0.359375 1.265625 -0.390625 1.109375 -0.453125 C 0.953125 -0.515625 0.816406 -0.597656 0.703125 -0.703125 C 0.597656 -0.816406 0.519531 -0.960938 0.46875 -1.140625 C 0.425781 -1.328125 0.40625 -1.597656 0.40625 -1.953125 L 0.40625 -3.125 L 0.046875 -3.125 L 0.40625 -4.71875 L 1.984375 -4.71875 L 1.984375 -2.875 C 1.984375 -2.550781 1.984375 -2.320312 1.984375 -2.1875 C 1.992188 -2.0625 2.015625 -1.972656 2.046875 -1.921875 C 2.097656 -1.804688 2.226562 -1.75 2.4375 -1.75 C 2.445312 -1.75 2.460938 -1.75 2.484375 -1.75 C 2.515625 -1.75 2.539062 -1.75 2.5625 -1.75 L 2.5625 -4.71875 L 4.140625 -4.71875 L 4.140625 -0.421875 C 4.140625 -0.210938 4.132812 -0.0351562 4.125 0.109375 C 4.113281 0.265625 4.09375 0.394531 4.0625 0.5 C 4.039062 0.613281 4.003906 0.710938 3.953125 0.796875 C 3.910156 0.878906 3.851562 0.957031 3.78125 1.03125 C 3.613281 1.21875 3.390625 1.359375 3.109375 1.453125 C 2.828125 1.546875 2.503906 1.59375 2.140625 1.59375 C 1.859375 1.59375 1.546875 1.5625 1.203125 1.5 C 0.867188 1.445312 0.554688 1.367188 0.265625 1.265625 Z M 0.578125 -0.15625 "/></g></g></g></svg>