<svg xmlns="http://www.w3.org/2000/svg" xmlns:xlink="http://www.w3.org/1999/xlink" width="50" zoomAndPan="magnify" viewBox="0 0 37.5 37.499999" height="50" preserveAspectRatio="xMidYMid meet" version="1.0"><defs><g/><clipPath id="e2c348c141"><path d="M 0 0 L 37.007812 0 L 37.007812 37.007812 L 0 37.007812 Z M 0 0 " clip-rule="nonzero"/></clipPath><clipPath id="480f7d0b53"><path d="M 0 10.964844 L 14.5 10.964844 L 14.5 22.808594 L 0 22.808594 Z M 0 10.964844 " clip-rule="nonzero"/></clipPath></defs><g clip-path="url(#e2c348c141)"><path fill="#ffffff" d="M 0 0 L 37.007812 0 L 37.007812 37.007812 L 0 37.007812 Z M 0 0 " fill-opacity="1" fill-rule="nonzero"/><path fill="#ffffff" d="M 0 0 L 37.007812 0 L 37.007812 37.007812 L 0 37.007812 Z M 0 0 " fill-opacity="1" fill-rule="nonzero"/></g><path fill="#222831" d="M 0.621094 14.722656 L 0.488281 14.566406 L -0.300781 13.421875 L 7.5625 13.421875 L 7.5625 14.722656 Z M 0.621094 14.722656 " fill-opacity="1" fill-rule="evenodd"/><path fill="#222831" d="M 3.359375 16.917969 L 3.042969 16.515625 L 2.410156 15.617188 L 7.5625 15.617188 L 7.5625 16.894531 C 6.152344 16.894531 4.757812 16.917969 3.359375 16.917969 Z M 3.359375 16.917969 " fill-opacity="1" fill-rule="evenodd"/><g clip-path="url(#480f7d0b53)"><path fill="#222831" d="M 5.4375 23.164062 L 5.4375 17.667969 C 6.140625 17.667969 6.847656 17.679688 7.5625 17.679688 L 7.5625 21.472656 L 9.910156 21.472656 C 10.578125 21.472656 11.089844 21.300781 11.46875 20.972656 C 11.84375 20.644531 12.039062 20.183594 12.039062 19.601562 C 12.039062 18.335938 11.382812 17.691406 10.09375 17.65625 L 9.824219 17.65625 L 9.824219 16.097656 C 10.398438 16.0625 10.847656 15.917969 11.1875 15.648438 C 11.550781 15.355469 11.734375 14.929688 11.734375 14.382812 C 11.734375 13.789062 11.5625 13.351562 11.222656 13.082031 C 10.882812 12.816406 10.347656 12.683594 9.617188 12.683594 C 8.441406 12.683594 3.671875 12.671875 1.242188 12.65625 L 0.0976562 10.96875 L 9.617188 10.96875 C 10.992188 10.96875 12.050781 11.246094 12.769531 11.792969 C 13.484375 12.355469 13.851562 13.167969 13.851562 14.261719 C 13.851562 14.820312 13.703125 15.320312 13.398438 15.769531 C 13.097656 16.21875 12.660156 16.574219 12.074219 16.816406 C 12.730469 16.984375 13.242188 17.328125 13.605469 17.824219 C 13.960938 18.3125 14.140625 18.90625 14.140625 19.601562 C 14.140625 20.753906 13.777344 21.628906 13.046875 22.238281 C 12.304688 22.859375 11.261719 23.164062 9.886719 23.164062 Z M 5.4375 23.164062 " fill-opacity="1" fill-rule="evenodd"/></g><g fill="#222831" fill-opacity="1"><g transform="translate(14.143305, 23.128209)"><g><path d="M 2.234375 -0.015625 C 1.898438 -0.0351562 1.644531 -0.0703125 1.46875 -0.125 C 1.300781 -0.175781 1.140625 -0.269531 0.984375 -0.40625 C 0.722656 -0.644531 0.523438 -0.953125 0.390625 -1.328125 C 0.253906 -1.703125 0.1875 -2.132812 0.1875 -2.625 C 0.1875 -3.007812 0.234375 -3.359375 0.328125 -3.671875 C 0.421875 -3.992188 0.550781 -4.269531 0.71875 -4.5 C 0.882812 -4.726562 1.085938 -4.898438 1.328125 -5.015625 C 1.578125 -5.140625 1.851562 -5.203125 2.15625 -5.203125 C 2.3125 -5.203125 2.457031 -5.179688 2.59375 -5.140625 C 2.726562 -5.109375 2.863281 -5.050781 3 -4.96875 L 3 -5.171875 L 4.671875 -5.171875 L 4.671875 -1.703125 L 5.046875 -1.703125 L 4.671875 0 L 2.9375 0 L 2.9375 -1.5625 L 2.59375 0 Z M 2.9375 -2.6875 C 2.9375 -2.820312 2.929688 -2.925781 2.921875 -3 C 2.921875 -3.082031 2.914062 -3.148438 2.90625 -3.203125 C 2.894531 -3.253906 2.882812 -3.296875 2.875 -3.328125 C 2.863281 -3.367188 2.84375 -3.398438 2.8125 -3.421875 C 2.726562 -3.503906 2.632812 -3.546875 2.53125 -3.546875 C 2.363281 -3.546875 2.226562 -3.460938 2.125 -3.296875 C 2.03125 -3.140625 1.984375 -2.925781 1.984375 -2.65625 C 1.984375 -2.007812 2.234375 -1.6875 2.734375 -1.6875 C 2.753906 -1.6875 2.785156 -1.6875 2.828125 -1.6875 C 2.867188 -1.6875 2.90625 -1.691406 2.9375 -1.703125 Z M 2.9375 -2.6875 "/></g></g></g><g fill="#222831" fill-opacity="1"><g transform="translate(19.248692, 23.128209)"><g><path d="M 0.453125 -3.421875 L 0.046875 -3.421875 L 0.453125 -5.171875 L 2.1875 -5.171875 L 2.1875 -4.703125 C 2.289062 -4.867188 2.414062 -4.988281 2.5625 -5.0625 C 2.71875 -5.144531 2.914062 -5.1875 3.15625 -5.1875 C 3.1875 -5.1875 3.21875 -5.1875 3.25 -5.1875 C 3.289062 -5.1875 3.335938 -5.179688 3.390625 -5.171875 L 3 -3.421875 C 2.894531 -3.484375 2.804688 -3.515625 2.734375 -3.515625 C 2.640625 -3.515625 2.550781 -3.492188 2.46875 -3.453125 C 2.394531 -3.410156 2.335938 -3.359375 2.296875 -3.296875 C 2.273438 -3.265625 2.253906 -3.226562 2.234375 -3.1875 C 2.222656 -3.144531 2.210938 -3.085938 2.203125 -3.015625 C 2.203125 -2.953125 2.195312 -2.867188 2.1875 -2.765625 C 2.1875 -2.660156 2.1875 -2.53125 2.1875 -2.375 L 2.1875 0 L 0.453125 0 Z M 0.453125 -3.421875 "/></g></g></g><g fill="#222831" fill-opacity="1"><g transform="translate(22.58152, 23.128209)"><g><path d="M 0.453125 -3.421875 L 0.046875 -3.421875 L 0.453125 -5.171875 L 2.1875 -5.171875 L 2.1875 -3.609375 L 2.53125 -5.171875 C 2.75 -5.171875 2.914062 -5.171875 3.03125 -5.171875 C 3.15625 -5.171875 3.25 -5.164062 3.3125 -5.15625 C 3.382812 -5.15625 3.441406 -5.148438 3.484375 -5.140625 C 3.523438 -5.140625 3.570312 -5.128906 3.625 -5.109375 C 3.769531 -5.078125 3.910156 -5.007812 4.046875 -4.90625 C 4.179688 -4.8125 4.285156 -4.691406 4.359375 -4.546875 C 4.398438 -4.472656 4.429688 -4.40625 4.453125 -4.34375 C 4.484375 -4.28125 4.503906 -4.195312 4.515625 -4.09375 C 4.523438 -4 4.53125 -3.875 4.53125 -3.71875 C 4.539062 -3.5625 4.546875 -3.351562 4.546875 -3.09375 L 4.546875 -1.703125 L 4.90625 -1.703125 L 4.546875 0 L 2.796875 0 L 2.796875 -2.296875 C 2.796875 -2.472656 2.796875 -2.613281 2.796875 -2.71875 C 2.796875 -2.832031 2.796875 -2.921875 2.796875 -2.984375 C 2.796875 -3.046875 2.789062 -3.09375 2.78125 -3.125 C 2.769531 -3.164062 2.753906 -3.203125 2.734375 -3.234375 C 2.660156 -3.367188 2.515625 -3.4375 2.296875 -3.4375 C 2.285156 -3.4375 2.269531 -3.4375 2.25 -3.4375 C 2.238281 -3.4375 2.21875 -3.429688 2.1875 -3.421875 L 2.1875 0 L 0.453125 0 Z M 0.453125 -3.421875 "/></g></g></g><g fill="#222831" fill-opacity="1"><g transform="translate(27.54892, 23.128209)"><g><path d="M 3.984375 -0.046875 C 3.765625 0.00390625 3.5625 0.0390625 3.375 0.0625 C 3.195312 0.09375 3.007812 0.109375 2.8125 0.109375 C 2.320312 0.109375 1.910156 0.0234375 1.578125 -0.140625 C 1.242188 -0.304688 0.953125 -0.570312 0.703125 -0.9375 C 0.359375 -1.445312 0.1875 -2.019531 0.1875 -2.65625 C 0.1875 -3.03125 0.242188 -3.375 0.359375 -3.6875 C 0.472656 -4.007812 0.628906 -4.285156 0.828125 -4.515625 C 1.035156 -4.753906 1.269531 -4.9375 1.53125 -5.0625 C 1.800781 -5.195312 2.097656 -5.265625 2.421875 -5.265625 C 3.140625 -5.265625 3.6875 -4.941406 4.0625 -4.296875 C 4.363281 -3.753906 4.515625 -3.128906 4.515625 -2.421875 C 4.515625 -2.410156 4.515625 -2.378906 4.515625 -2.328125 C 4.515625 -2.273438 4.515625 -2.222656 4.515625 -2.171875 L 1.96875 -2.171875 C 2.070312 -1.898438 2.207031 -1.707031 2.375 -1.59375 C 2.539062 -1.476562 2.785156 -1.421875 3.109375 -1.421875 C 3.296875 -1.421875 3.5 -1.4375 3.71875 -1.46875 C 3.945312 -1.507812 4.15625 -1.566406 4.34375 -1.640625 Z M 2.859375 -3.1875 C 2.828125 -3.4375 2.773438 -3.613281 2.703125 -3.71875 C 2.628906 -3.832031 2.523438 -3.890625 2.390625 -3.890625 C 2.265625 -3.890625 2.15625 -3.828125 2.0625 -3.703125 C 1.976562 -3.578125 1.925781 -3.40625 1.90625 -3.1875 Z M 2.859375 -3.1875 "/></g></g></g><g fill="#222831" fill-opacity="1"><g transform="translate(32.229738, 23.128209)"><g><path d="M 0.625 -0.171875 C 0.945312 -0.0234375 1.210938 0.0703125 1.421875 0.125 C 1.628906 0.1875 1.832031 0.21875 2.03125 0.21875 C 2.320312 0.21875 2.519531 0.132812 2.625 -0.03125 C 2.738281 -0.195312 2.796875 -0.492188 2.796875 -0.921875 L 2.796875 -1.703125 L 2.5 -0.390625 L 1.734375 -0.390625 C 1.554688 -0.390625 1.378906 -0.421875 1.203125 -0.484375 C 1.035156 -0.554688 0.894531 -0.65625 0.78125 -0.78125 C 0.65625 -0.894531 0.566406 -1.050781 0.515625 -1.25 C 0.472656 -1.445312 0.453125 -1.738281 0.453125 -2.125 L 0.453125 -3.421875 L 0.046875 -3.421875 L 0.453125 -5.171875 L 2.171875 -5.171875 L 2.171875 -3.140625 C 2.171875 -2.785156 2.175781 -2.539062 2.1875 -2.40625 C 2.195312 -2.269531 2.210938 -2.171875 2.234375 -2.109375 C 2.296875 -1.972656 2.441406 -1.90625 2.671875 -1.90625 C 2.679688 -1.90625 2.695312 -1.90625 2.71875 -1.90625 C 2.75 -1.90625 2.773438 -1.910156 2.796875 -1.921875 L 2.796875 -5.171875 L 4.546875 -5.171875 L 4.546875 -0.46875 C 4.546875 -0.226562 4.539062 -0.03125 4.53125 0.125 C 4.519531 0.289062 4.492188 0.4375 4.453125 0.5625 C 4.421875 0.6875 4.378906 0.789062 4.328125 0.875 C 4.285156 0.96875 4.222656 1.054688 4.140625 1.140625 C 3.953125 1.335938 3.703125 1.484375 3.390625 1.578125 C 3.085938 1.679688 2.738281 1.734375 2.34375 1.734375 C 2.039062 1.734375 1.703125 1.703125 1.328125 1.640625 C 0.960938 1.578125 0.617188 1.492188 0.296875 1.390625 Z M 0.625 -0.171875 "/></g></g></g></svg>